<svg width="330" height="217" viewBox="0 0 330 217" fill="none" xmlns="http://www.w3.org/2000/svg">
<rect width="330" height="217" fill="#C4C4C4"/>
<path d="M196.208 72.125H140.792C136.419 72.125 132.875 75.744 132.875 80.2083V136.792C132.875 141.256 136.419 144.875 140.792 144.875H196.208C200.581 144.875 204.125 141.256 204.125 136.792V80.2083C204.125 75.744 200.581 72.125 196.208 72.125Z" stroke="black" stroke-width="2" stroke-linecap="round" stroke-linejoin="round"/>
<path d="M154.646 100.417C157.925 100.417 160.583 97.7022 160.583 94.354C160.583 91.0058 157.925 88.2915 154.646 88.2915C151.367 88.2915 148.708 91.0058 148.708 94.354C148.708 97.7022 151.367 100.417 154.646 100.417Z" stroke="black" stroke-width="2" stroke-linecap="round" stroke-linejoin="round"/>
<path d="M204.125 120.625L184.333 100.417L140.792 144.875" stroke="black" stroke-width="2" stroke-linecap="round" stroke-linejoin="round"/>
</svg>
