<svg width="920" height="152" viewBox="0 0 920 152" fill="none" xmlns="http://www.w3.org/2000/svg">
<rect width="920" height="152" fill="#C4C4C4"/>
<path d="M192.208 40.125H136.792C132.419 40.125 128.875 43.744 128.875 48.2083V104.792C128.875 109.256 132.419 112.875 136.792 112.875H192.208C196.581 112.875 200.125 109.256 200.125 104.792V48.2083C200.125 43.744 196.581 40.125 192.208 40.125Z" stroke="black" stroke-width="2" stroke-linecap="round" stroke-linejoin="round"/>
<path d="M150.646 68.4165C153.925 68.4165 156.583 65.7022 156.583 62.354C156.583 59.0058 153.925 56.2915 150.646 56.2915C147.367 56.2915 144.708 59.0058 144.708 62.354C144.708 65.7022 147.367 68.4165 150.646 68.4165Z" stroke="black" stroke-width="2" stroke-linecap="round" stroke-linejoin="round"/>
<path d="M200.125 88.6248L180.333 68.4165L136.792 112.875" stroke="black" stroke-width="2" stroke-linecap="round" stroke-linejoin="round"/>
</svg>
