<svg width="382" height="206" viewBox="0 0 382 206" fill="none" xmlns="http://www.w3.org/2000/svg">
<rect width="382" height="206" fill="#EBE7E7"/>
<path d="M223.208 93.125H167.792C163.419 93.125 159.875 96.744 159.875 101.208V157.792C159.875 162.256 163.419 165.875 167.792 165.875H223.208C227.581 165.875 231.125 162.256 231.125 157.792V101.208C231.125 96.744 227.581 93.125 223.208 93.125Z" stroke="black" stroke-width="2" stroke-linecap="round" stroke-linejoin="round"/>
<path d="M181.646 121.417C184.925 121.417 187.583 118.702 187.583 115.354C187.583 112.006 184.925 109.292 181.646 109.292C178.367 109.292 175.708 112.006 175.708 115.354C175.708 118.702 178.367 121.417 181.646 121.417Z" stroke="black" stroke-width="2" stroke-linecap="round" stroke-linejoin="round"/>
<path d="M231.125 141.625L211.333 121.417L167.792 165.875" stroke="black" stroke-width="2" stroke-linecap="round" stroke-linejoin="round"/>
</svg>
