<svg width="1156" height="176" viewBox="0 0 1156 176" fill="none" xmlns="http://www.w3.org/2000/svg">
<rect width="1156" height="176" fill="#C4C4C4"/>
<path d="M200.208 51.125H144.792C140.419 51.125 136.875 54.744 136.875 59.2083V115.792C136.875 120.256 140.419 123.875 144.792 123.875H200.208C204.581 123.875 208.125 120.256 208.125 115.792V59.2083C208.125 54.744 204.581 51.125 200.208 51.125Z" stroke="black" stroke-width="2" stroke-linecap="round" stroke-linejoin="round"/>
<path d="M158.646 79.4165C161.925 79.4165 164.583 76.7022 164.583 73.354C164.583 70.0058 161.925 67.2915 158.646 67.2915C155.367 67.2915 152.708 70.0058 152.708 73.354C152.708 76.7022 155.367 79.4165 158.646 79.4165Z" stroke="black" stroke-width="2" stroke-linecap="round" stroke-linejoin="round"/>
<path d="M208.125 99.6248L188.333 79.4165L144.792 123.875" stroke="black" stroke-width="2" stroke-linecap="round" stroke-linejoin="round"/>
</svg>
